<svg id="svg" version="1.1" width="400" height="400" viewBox="0 0 400 400" xmlns="http://www.w3.org/2000/svg" xmlns:xlink="http://www.w3.org/1999/xlink" ><g id="svgg"><path id="path0" d="M34.766 201.367 L 34.766 370.313 201.758 370.313 L 368.750 370.313 368.750 201.367 L 368.750 32.422 201.758 32.422 L 34.766 32.422 34.766 201.367 M358.497 201.465 L 358.595 360.156 201.758 360.156 L 44.922 360.156 44.922 201.367 L 44.922 42.577 201.660 42.675 L 358.398 42.773 358.497 201.465 M190.234 107.223 C 108.714 117.115,74.388 216.751,132.672 274.306 C 183.148 324.152,268.448 305.521,293.396 239.202 C 319.120 170.818,262.552 98.448,190.234 107.223 " stroke="none" fill="#2aa647" fill-rule="evenodd"></path><path id="path1" d="M44.922 201.563 L 44.922 360.156 201.563 360.156 L 358.203 360.156 358.203 201.563 L 358.203 42.969 201.563 42.969 L 44.922 42.969 44.922 201.563 M214.844 107.239 C 292.919 118.072,327.385 212.410,274.494 270.508 C 223.523 326.497,131.236 306.682,108.023 234.766 C 85.907 166.250,143.615 97.356,214.844 107.239 " stroke="none" fill="#fbfbfb" fill-rule="evenodd"></path><path id="path2" d="M201.660 42.871 L 358.202 42.970 358.301 201.563 L 358.400 360.156 358.399 201.465 L 358.398 42.773 201.758 42.773 L 45.117 42.772 201.660 42.871 M130.078 272.070 C 130.807 272.822,131.491 273.438,131.599 273.438 C 131.706 273.438,131.198 272.822,130.469 272.070 C 129.740 271.318,129.056 270.703,128.948 270.703 C 128.841 270.703,129.349 271.318,130.078 272.070 M133.789 275.781 C 134.628 276.641,135.403 277.344,135.510 277.344 C 135.618 277.344,135.019 276.641,134.180 275.781 C 133.341 274.922,132.566 274.219,132.459 274.219 C 132.351 274.219,132.950 274.922,133.789 275.781 M268.139 276.660 L 266.992 277.930 268.262 276.782 C 269.445 275.713,269.711 275.391,269.409 275.391 C 269.342 275.391,268.771 275.962,268.139 276.660 " stroke="none" fill="#cc9484" fill-rule="evenodd"></path><path id="path3" d="M200.098 106.535 C 200.903 106.619,202.222 106.619,203.027 106.535 C 203.833 106.450,203.174 106.381,201.563 106.381 C 199.951 106.381,199.292 106.450,200.098 106.535 M299.743 204.492 C 299.745 206.211,299.813 206.865,299.896 205.947 C 299.978 205.028,299.977 203.622,299.893 202.822 C 299.809 202.022,299.742 202.773,299.743 204.492 " stroke="none" fill="#d4aa9a" fill-rule="evenodd"></path><path id="path4" d="M269.922 134.107 C 269.922 134.174,270.493 134.745,271.191 135.376 L 272.461 136.523 271.314 135.254 C 270.244 134.071,269.922 133.805,269.922 134.107 M103.266 204.688 C 103.266 206.729,103.332 207.563,103.412 206.543 C 103.493 205.522,103.493 203.853,103.412 202.832 C 103.332 201.812,103.266 202.646,103.266 204.688 M299.700 208.594 C 299.700 209.346,299.780 209.653,299.879 209.277 C 299.977 208.901,299.977 208.286,299.879 207.910 C 299.780 207.534,299.700 207.842,299.700 208.594 M199.707 303.021 C 200.728 303.102,202.397 303.102,203.418 303.021 C 204.438 302.941,203.604 302.875,201.563 302.875 C 199.521 302.875,198.687 302.941,199.707 303.021 " stroke="none" fill="#e4cbc0" fill-rule="evenodd"></path></g></svg>