<svg height="512pt" viewBox="0 0 512 512" width="512pt" xmlns="http://www.w3.org/2000/svg"><path d="m512 256c0 44.398438-11.304688 86.164062-31.191406 122.554688-19.277344 35.296874-46.621094 65.546874-79.566406 88.285156-13.773438 9.507812-28.539063 17.699218-44.085938 24.398437-5.820312 2.507813-11.746094 4.796875-17.773438 6.863281-6.6875 2.308594-13.511718 4.347657-20.4375 6.082032-7.773437 1.976562-15.683593 3.585937-23.71875 4.828125-7.410156 1.140625-14.910156 1.964843-22.507812 2.445312-4.984375.324219-10.011719.5-15.066406.53125-.542969.011719-1.097656.011719-1.652344.011719-.855469 0-1.722656 0-2.582031-.019531-9.925781-.105469-19.726563-.765625-29.359375-1.964844-1.515625-.1875-3.03125-.386719-4.535156-.605469-1.078126-.160156-2.152344-.316406-3.230469-.492187-8.503907-1.316407-16.875-3.0625-25.078125-5.203125-54.15625-14.105469-101.324219-45.507813-135.261719-87.960938-7.667969-9.582031-14.660156-19.738281-20.898437-30.375-22.285157-37.960937-35.054688-82.171875-35.054688-129.378906s12.777344-91.417969 35.054688-129.390625c15.832031-26.957031 36.449218-50.761719 60.6875-70.246094 43.867187-35.265625 99.589843-56.363281 160.257812-56.363281 141.386719 0 256 114.613281 256 256zm0 0" fill="#f76c59"/><path d="m505.707031 83.59375c0 46.164062-37.421875 83.589844-83.589843 83.589844-46.167969 0-83.59375-37.425782-83.59375-83.589844 0-46.167969 37.425781-83.59375 83.59375-83.59375 46.167968 0 83.589843 37.425781 83.589843 83.59375zm0 0" fill="#73b287"/><path d="m398.671875 129.328125-21.050781-25.257813c-3.691406-4.433593-3.09375-11.019531 1.339844-14.714843v-.003907c4.433593-3.691406 11.023437-3.09375 14.714843 1.339844l12.46875 14.960938 45.257813-62.121094c3.398437-4.667969 9.9375-5.691406 14.601562-2.292969 4.664063 3.398438 5.6875 9.933594 2.292969 14.597657l-53.152344 72.953124c-4.007812 5.5-12.117187 5.765626-16.472656.539063zm0 0" fill="#fff"/><path d="m253.417969 56.363281v455.617188c-140.191407-1.378907-253.417969-115.453125-253.417969-255.980469 0-80.730469 37.367188-152.722656 95.742188-199.636719zm0 0" fill="#4f9b67"/><path d="m295.226562 56.363281v452.648438c-12.789062 1.964843-25.882812 2.988281-39.226562 2.988281-.855469 0-1.722656 0-2.582031-.019531-93.109375-.921875-174.320313-51.535157-218.363281-126.601563v-329.015625zm0 0" fill="#73b287"/><g fill="#4f9b67"><path d="m274.324219 90.144531c0 7.117188-5.773438 12.886719-12.886719 12.886719-7.117188 0-12.886719-5.769531-12.886719-12.886719 0-7.117187 5.769531-12.886719 12.886719-12.886719 7.113281 0 12.886719 5.769532 12.886719 12.886719zm0 0"/><path d="m81.726562 90.144531c0 7.117188-5.769531 12.886719-12.886718 12.886719-7.117188 0-12.886719-5.769531-12.886719-12.886719 0-7.117187 5.769531-12.886719 12.886719-12.886719 7.117187 0 12.886718 5.769532 12.886718 12.886719zm0 0"/><path d="m274.328125 132.074219v323.648437c-29.90625 0-54.210937 23.9375-54.804687 53.6875-65.976563-9.40625-123.84375-43.960937-163.570313-93.65625v-283.679687c30.273437 0 54.816406-24.542969 54.816406-54.816407h108.730469c0 30.273438 24.546875 54.816407 54.828125 54.816407zm0 0"/><path d="m274.324219 497.652344c0 7.117187-5.773438 12.886718-12.886719 12.886718-7.117188 0-12.886719-5.769531-12.886719-12.886718 0-7.117188 5.769531-12.886719 12.886719-12.886719 7.113281 0 12.886719 5.769531 12.886719 12.886719zm0 0"/></g><path d="m259.179688 293.898438c0-39.242188-42.105469-71.054688-94.042969-71.054688s-94.039063 31.8125-94.039063 71.054688c0 39.242187 42.101563 71.050781 94.039063 71.050781s94.042969-31.808594 94.042969-71.050781zm0 0" fill="#73b287"/><path d="m221.691406 296.519531c-.316406 19.699219-10.960937 33.042969-18.746094 33.042969-3.8125 0-9.054687-3.335938-9.054687-7.308594 0-5.242187 11.121094-9.53125 12.390625-25.734375h-37.332031c-5.082031 14.296875-10.800781 30.183594-31.136719 30.183594-20.015625 0-27.960938-15.089844-29.546875-30.183594h-4.609375c-1.90625 0-3.652344-1.90625-3.652344-4.609375 0-2.382812 1.746094-4.765625 3.652344-4.765625h4.289062c.320313-10.800781 3.652344-26.054687 11.4375-26.054687 3.019532 0 9.054688 2.226562 9.054688 6.992187 0 3.8125-5.082031 7.941407-5.875 19.0625h32.246094c5.085937-13.820312 12.074218-28.914062 33.679687-28.914062 19.539063 0 30.34375 11.757812 32.726563 28.914062h5.402344c1.90625 0 3.652343 2.382813 3.652343 4.765625 0 2.703125-1.746093 4.609375-3.652343 4.609375zm-69.898437-.953125h-28.914063c1.113282 8.894532 5.082032 15.25 13.34375 15.25 9.058594 0 12.390625-6.832031 15.570313-15.25zm20.652343-7.46875h33.519532c-1.589844-8.578125-6.671875-13.980468-15.726563-13.980468-10.007812.003906-14.457031 6.199218-17.792969 13.980468zm0 0" fill="#4f9b67"/><path d="m480.808594 240.671875v137.882813c-19.277344 35.296874-46.621094 65.546874-79.566406 88.285156-13.773438 9.507812-28.539063 17.699218-44.085938 24.398437-5.820312 2.507813-11.746094 4.796875-17.773438 6.863281-6.6875 2.308594-13.511718 4.347657-20.4375 6.082032-7.773437 1.976562-15.683593 3.585937-23.71875 4.828125-7.410156 1.140625-14.910156 1.964843-22.507812 2.445312-4.984375.324219-10.011719.5-15.066406.53125-.542969.011719-1.097656.011719-1.652344.011719-.855469 0-1.722656 0-2.582031-.019531-9.925781-.105469-19.726563-.765625-29.359375-1.964844-1.515625-.1875-3.03125-.386719-4.535156-.605469-1.078126-.160156-2.152344-.316406-3.230469-.492187v-268.246094c0-13.523437 10.953125-24.460937 24.460937-24.460937h215.59375c13.511719 0 24.460938 10.9375 24.460938 24.460937zm0 0" fill="#ffda73"/><path d="m318.945312 216.210938v287.972656c-7.773437 1.976562-15.683593 3.585937-23.71875 4.828125-7.410156 1.140625-14.910156 1.964843-22.507812 2.445312-4.984375.324219-10.011719.5-15.066406.53125v-295.777343zm0 0" fill="#55627a"/><path d="m339.386719 249.3125h17.765625v80.929688h-17.765625zm0 0" fill="#55627a"/><path d="m357.15625 440.78125v50.457031c-5.820312 2.507813-11.746094 4.796875-17.773438 6.863281v-57.320312zm0 0" fill="#55627a"/><path d="m339.386719 345.046875h17.765625v80.933594h-17.765625zm0 0" fill="#55627a"/></svg>