<svg height="512pt" viewBox="-51 0 512 512" width="512pt" xmlns="http://www.w3.org/2000/svg"><path d="m0 0h410v512h-410zm0 0" fill="#54636D"/><path d="m205 0h205v512h-205zm0 0" fill="#374147"/><path d="m60 60h290v392h-290zm0 0" fill="#ede9e8"/><path d="m205 60h145v392h-145zm0 0" fill="#d2c5c2"/><path d="m130 120h150v82h-150zm0 0" fill="#fd935c"/><g fill="#99503d"><path d="m185.734375 230.8125h109.265625v30h-109.265625zm0 0"/><path d="m115 230.8125h40.210938v30h-40.210938zm0 0"/><path d="m185.734375 289.621094h109.265625v30h-109.265625zm0 0"/><path d="m115 289.621094h40.210938v30h-40.210938zm0 0"/><path d="m185.734375 348.433594h109.265625v30h-109.265625zm0 0"/><path d="m115 348.433594h40.210938v30h-40.210938zm0 0"/></g><path d="m205 120h75v82h-75zm0 0" fill="#fd7560"/><path d="m205 230.8125h90v30h-90zm0 0" fill="#804231"/><path d="m205 289.621094h90v30h-90zm0 0" fill="#804231"/><path d="m205 348.433594h90v30h-90zm0 0" fill="#804231"/></svg>