<svg height="512pt" viewBox="-96 0 512 512" width="512pt" xmlns="http://www.w3.org/2000/svg"><path d="m129.09375 348.199219h61.8125v72.113281h-61.8125zm0 0" fill="#d98868"/><path d="m64.453125 210.671875c0 22.1875-13.605469 40.175781-30.386719 40.175781-16.785156 0-26.535156-20.65625-26.535156-42.84375 0-22.191406 9.75-37.507812 26.535156-37.507812 16.78125 0 30.386719 17.988281 30.386719 40.175781zm0 0" fill="#e8916f"/><path d="m255.546875 210.671875c0 22.1875 13.605469 40.175781 30.386719 40.175781 16.785156 0 26.535156-20.65625 26.535156-42.84375 0-22.191406-9.75-37.507812-26.535156-37.507812-16.78125 0-30.386719 17.988281-30.386719 40.175781zm0 0" fill="#d98868"/><path d="m48.738281 257.101562v-82.632812c0-57.953125 46.980469-104.929688 104.933594-104.929688h12.65625c57.953125 0 104.929687 46.976563 104.929687 104.929688v82.632812c0 61.410157-49.777343 111.1875-111.1875 111.1875h-.144531c-61.40625 0-111.1875-49.777343-111.1875-111.1875zm0 0" fill="#ebad88"/><path d="m166.328125 69.535156h-12.65625c-3.074219 0-6.117187.140625-9.125.402344 53.679687 4.621094 95.808594 49.652344 95.808594 104.53125v82.632812c0 56.1875-41.679688 102.632813-95.808594 110.125 5.027344.695313 10.164063 1.0625 15.382813 1.0625h.144531c61.40625 0 111.1875-49.78125 111.1875-111.1875v-82.632812c0-57.953125-46.980469-104.933594-104.933594-104.933594zm0 0" fill="#e8916f"/><path d="m213.015625 276.300781c-3.84375-1.5625-8.214844.289063-9.773437 4.125-.089844.226563-9.484376 22.425781-42.128907 22.425781-32.542969 0-44.070312-21.921874-44.585937-22.933593-1.828125-3.691407-6.300782-5.21875-10.007813-3.40625-3.722656 1.8125-5.265625 6.304687-3.449219 10.027343.625 1.277344 15.773438 31.3125 58.042969 31.3125 42.628907 0 55.5-30.480468 56.027344-31.78125 1.558594-3.835937-.289063-8.210937-4.125-9.769531zm0 0" fill="#9c5d35"/><path d="m214.941406 208.261719c-17.671875-1.753907-31.277344 4.121093-31.847656 4.371093-3.78125 1.664063-5.492188 6.0625-3.847656 9.847657 1.230468 2.824219 3.992187 4.507812 6.890625 4.507812.992187 0 2-.195312 2.964843-.609375.105469-.046875 10.761719-4.535156 24.359376-3.1875 4.125.410156 7.792968-2.601562 8.203124-6.722656.410157-4.125-2.597656-7.796875-6.722656-8.207031zm0 0" fill="#9c5d35"/><path d="m106.539062 223.1875c13.507813-1.335938 24.109376 3.082031 24.355469 3.1875.972657.425781 1.992188.625 2.988281.625 2.886719 0 5.636719-1.671875 6.871094-4.480469 1.667969-3.792969-.054687-8.21875-3.847656-9.886719-.570312-.25-14.175781-6.125-31.847656-4.371093-4.125.410156-7.132813 4.082031-6.722656 8.207031.40625 4.121094 4.074218 7.128906 8.203124 6.71875zm0 0" fill="#9c5d35"/><path d="m305.261719 509.488281v.003907c0 1.386718-1.125 2.507812-2.507813 2.507812h-285.507812c-1.386719 0-2.507813-1.121094-2.507813-2.507812v-.003907c0-61.199219 42.972657-110.808593 95.980469-110.808593h98.5625c53.007812 0 95.980469 49.609374 95.980469 110.808593zm0 0" fill="#d5dfe8"/><path d="m209.28125 398.679688h-30.902344c53.003906 0 95.972656 49.613281 95.972656 110.816406v2.503906h28.398438c1.382812 0 2.503906-1.121094 2.503906-2.503906.003906-61.203125-42.964844-110.816406-95.972656-110.816406zm0 0" fill="#cad2db"/><path d="m88.378906 147.832031s-4.269531 46.105469-24.289062 61.945313c-6.867188 5.433594-17.085938 2.304687-20.15625-5.894532-9.425782-25.183593-3.714844-56.050781-3.714844-56.050781zm0 0" fill="#b0693c"/><path d="m231.621094 147.832031s4.269531 46.105469 24.289062 61.945313c6.867188 5.433594 17.085938 2.304687 20.15625-5.894532 9.425782-25.183593 3.714844-56.050781 3.714844-56.050781zm0 0" fill="#9c5d35"/><path d="m280.652344 152.980469h-241.304688c-2.207031 0-4-1.789063-4-4v-90.777344h249.304688v90.777344c0 2.210937-1.792969 4-4 4zm0 0" fill="#cad2db"/><path d="m280.652344 152.980469h-26.90625v-94.777344h30.90625v90.777344c0 2.210937-1.792969 4-4 4zm0 0" fill="#bfc7d1"/><path d="m220.730469 420.308594c0 4.152344-3.359375 7.5-7.5 7.5h-94.011719c-12.949219 0-23.488281 10.542968-23.488281 23.492187v60.699219h-15v-60.699219c0-21.222656 17.269531-38.492187 38.488281-38.492187h94.011719c4.140625 0 7.5 3.363281 7.5 7.5zm0 0" fill="#bfc7d1"/><path d="m148.667969 465.128906c0 8.53125-6.917969 15.449219-15.453125 15.449219s-15.453125-6.917969-15.453125-15.449219c0-8.535156 6.917969-15.453125 15.453125-15.453125s15.453125 6.917969 15.453125 15.453125zm0 0" fill="#ffbd54"/><path d="m320 38.371094c0 10.597656-4.300781 20.1875-11.238281 27.140625-6.941407 6.949219-16.542969 11.238281-27.132813 11.238281h-243.257812c-21.191406 0-38.371094-17.179688-38.371094-38.378906 0-10.589844 4.300781-20.191406 11.238281-27.132813 6.941407-6.9375 16.542969-11.238281 27.132813-11.238281h243.257812c21.191406 0 38.371094 17.179688 38.371094 38.371094zm0 0" fill="#d5dfe8"/><path d="m281.546875 0h-30.96875c21.238281 0 38.453125 17.179688 38.453125 38.375 0 21.191406-17.214844 38.371094-38.453125 38.371094h30.96875c21.238281 0 38.453125-17.179688 38.453125-38.371094 0-21.195312-17.214844-38.375-38.453125-38.375zm0 0" fill="#cad2db"/><g fill="#bfc7d1"><path d="m64.480469 39.660156v37.089844h-15v-37.089844c0-4.140625 3.359375-7.5 7.5-7.5s7.5 3.359375 7.5 7.5zm0 0"/><path d="m105.691406 39.660156v37.089844h-15v-37.089844c0-4.140625 3.359375-7.5 7.5-7.5 4.136719 0 7.5 3.359375 7.5 7.5zm0 0"/><path d="m146.898438 39.660156v37.089844h-15v-37.089844c0-4.140625 3.351562-7.5 7.5-7.5 4.140624 0 7.5 3.359375 7.5 7.5zm0 0"/><path d="m188.101562 39.660156v37.089844h-15v-37.089844c0-4.140625 3.359376-7.5 7.5-7.5 4.148438 0 7.5 3.359375 7.5 7.5zm0 0"/><path d="m229.308594 39.660156v37.089844h-15v-37.089844c0-4.140625 3.363281-7.5 7.5-7.5 4.140625 0 7.5 3.359375 7.5 7.5zm0 0"/><path d="m270.519531 39.660156v37.089844h-15v-37.089844c0-4.140625 3.359375-7.5 7.5-7.5s7.5 3.359375 7.5 7.5zm0 0"/></g></svg>