<svg height="512pt" viewBox="-11 0 512 512" width="512pt" xmlns="http://www.w3.org/2000/svg"><path d="m153.765625 512c-13.105469 0-23.730469-10.625-23.730469-23.730469v-198.53125c0-13.105469 10.625-23.730469 23.730469-23.730469s23.734375 10.625 23.734375 23.730469v198.53125c0 13.105469-10.625 23.730469-23.734375 23.730469zm0 0" fill="#5f6e9b"/><path d="m214.164062 512c-13.105468 0-23.730468-10.625-23.730468-23.730469v-198.53125c0-13.105469 10.625-23.730469 23.730468-23.730469 13.109376 0 23.734376 10.625 23.734376 23.730469v198.53125c0 13.105469-10.625 23.730469-23.734376 23.730469zm0 0" fill="#414b82"/><path d="m322.011719 196.515625c-17.75-30.445313-36.46875-62.136719-36.535157-62.253906-8.820312-14.949219-22.148437-37.539063-49.769531-37.539063-11.792969 0-91.273437 0-103.492187 0-27.621094 0-40.949219 22.589844-49.769532 37.539063-.070312.125-17.808593 30.132812-36.535156 62.253906-2.980468 5.105469-3.792968 11.199219-2.25 16.90625 1.539063 5.710937 5.304688 10.566406 10.449219 13.480469l64.519531 36.554687c3.261719 1.847657 6.789063 2.765625 10.292969 2.859375v19.738282h109.632813v-19.726563c3.644531-.019531 7.339843-.945313 10.738281-2.871094l64.519531-36.554687c5.148438-2.914063 8.910156-7.769532 10.449219-13.480469 1.542969-5.707031.730469-11.800781-2.25-16.90625zm-226.597657 2.957031c16.476563-28.140625 33.507813-55.613281 33.507813-55.613281v74.597656zm143.140626 19.238282v-75.390626s24.253906 39.585938 33.953124 56.152344zm0 0" fill="#ffb69e"/><path d="m285.476562 134.261719c-8.820312-14.949219-22.148437-37.539063-49.769531-37.539063h-30.953125c.476563 10.980469-9.714844 20.328125-20.355468 20.328125-11.402344 0-19.84375-9.3125-20.351563-20.328125h-31.832031c-27.621094 0-40.949219 22.589844-49.769532 37.539063-.039062.070312-5.824218 9.855469-14.257812 24.210937l39.253906 20.703125c11.8125-19.722656 21.476563-35.316406 21.476563-35.316406v142.195313h109.632812v-142.734376s11.496094 18.761719 21.824219 35.855469l38.371094-22.382812c-7.789063-13.25-13.234375-22.46875-13.269532-22.53125zm0 0" fill="#64afff"/><path d="m226.140625 41.566406c0 22.957032-18.613281 41.566406-41.570313 41.566406-22.957031 0-41.566406-18.609374-41.566406-41.566406 0-22.957031 18.609375-41.566406 41.566406-41.566406 22.957032 0 41.570313 18.609375 41.570313 41.566406zm0 0" fill="#ffb69e"/><path d="m218.066406 145.390625c-.765625-2.648437-.917968-5.441406-.445312-8.15625l7.089844-40.511719h-17.105469l-5.183594 29.640625c-1.519531 8.671875-9.046875 15-17.851563 15-8.800781 0-16.332031-6.328125-17.847656-15l-5.1875-29.640625h-17.101562l7.085937 40.511719c.476563 2.714844.324219 5.503906-.441406 8.15625l-22.277344 77.019531v123.085938h111.542969c0-24.117188 0-97.902344 0-123.085938zm0 0" fill="#c8e6eb"/><path d="m461.160156 321.703125h-432.300781c-15.9375 0-28.859375-12.921875-28.859375-28.859375s12.921875-28.859375 28.859375-28.859375h432.300781c15.941406 0 28.859375 12.921875 28.859375 28.859375s-12.917969 28.859375-28.859375 28.859375zm0 0" fill="#87afb9"/><path d="m118.628906 263.457031-64.519531-36.554687c-10.628906-6.019532-14.359375-19.511719-8.339844-30.140625 6.019531-10.625 19.515625-14.359375 30.140625-8.335938l64.519532 36.554688c10.628906 6.019531 14.359374 19.511719 8.339843 30.136719-6.027343 10.640624-19.527343 14.351562-30.140625 8.339843zm0 0" fill="#ffb69e"/><path d="m219.152344 255.117188c-6.019532-10.625-2.289063-24.121094 8.339844-30.140626l64.519531-36.554687c10.625-6.019531 24.121093-2.285156 30.140625 8.339844 6.019531 10.625 2.289062 24.121093-8.339844 30.140625l-64.519531 36.554687c-10.585938 5.996094-24.097657 2.328125-30.140625-8.339843zm0 0" fill="#ffb69e"/><path d="m415.757812 171.777344h-22.03125c-4.503906 0-8.152343-3.648438-8.152343-8.152344 0-4.5 3.648437-8.152344 8.152343-8.152344h22.03125c4.5 0 8.152344 3.652344 8.152344 8.152344 0 4.503906-3.652344 8.152344-8.152344 8.152344zm0 0" fill="#55879b"/><path d="m468.847656 211.460938h-128.210937c-4.5 0-8.152344-3.652344-8.152344-8.152344 0-4.503906 3.652344-8.152344 8.152344-8.152344h128.210937c4.5 0 8.148438 3.648438 8.148438 8.152344 0 4.5-3.648438 8.152344-8.148438 8.152344zm0 0" fill="#6c9baa"/><path d="m457.433594 181.242188c-7.378906-7.378907-17.386719-11.527344-27.824219-11.527344h-49.738281c-10.433594 0-20.441406 4.144531-27.820313 11.523437v.003907c-.402343.398437-.523437 1.003906-.304687 1.527343.21875.519531.726562.863281 1.292968.863281h103.402344c.566406 0 1.078125-.34375 1.292969-.863281.21875-.523437.101563-1.125-.300781-1.527343zm0 0" fill="#87afb9"/><path d="m456.78125 234.152344c-1.246094 16.824218-15.253906 29.835937-32.125 29.835937h-39.828125c-16.867187 0-30.878906-13.011719-32.125-29.835937l-3.285156-44.335938c-.117188-1.589844.433593-3.15625 1.515625-4.324218 1.085937-1.167969 2.605468-1.832032 4.199218-1.832032h99.21875c1.59375 0 3.117188.664063 4.199219 1.832032 1.085938 1.167968 1.632813 2.734374 1.515625 4.324218zm0 0" fill="#55879b"/><path d="m394.761719 224.96875c0-.828125-.050781-1.648438-.144531-2.457031-.179688-1.589844-1.519532-2.785157-3.117188-2.785157h-88.582031c-1.59375 0-2.933594 1.195313-3.117188 2.777344-.09375.8125-.148437 1.632813-.148437 2.464844 0 13 9.933594 24.316406 24.589844 30.191406v5.691406c0 1.734376 1.402343 3.136719 3.136718 3.136719h39.65625c1.734375 0 3.140625-1.402343 3.140625-3.136719v-5.691406c14.65625-5.875 24.585938-17.191406 24.585938-30.191406zm0 0" fill="#b4d7dc"/></svg>