<?xml version="1.0" encoding="iso-8859-1"?>
<!-- Generator: Adobe Illustrator 19.0.0, SVG Export Plug-In . SVG Version: 6.00 Build 0)  -->
<svg version="1.1" id="Capa_1" xmlns="http://www.w3.org/2000/svg" xmlns:xlink="http://www.w3.org/1999/xlink" x="0px" y="0px"
	 viewBox="0 0 511.999 511.999" style="enable-background:new 0 0 511.999 511.999;" xml:space="preserve">
<path style="fill:#C98A2E;" d="M439.888,348.201H72.108c-10.916,25.404,0.624,55.098,25.677,65.74
	c48.727,20.699,102.165,22.856,158.213,22.856s109.487-2.156,158.213-22.856C439.264,403.299,450.804,373.605,439.888,348.201z"/>
<path style="fill:#6D5B4D;" d="M456.399,283.3H55.597c-11.414,0-20.963,8.904-21.086,20.102
	c-0.22,20.187,12.961,39.48,35.098,47.714c57.405,21.354,120.359,33.142,186.389,33.142s128.984-11.788,186.388-33.142
	c22.138-8.234,35.319-27.526,35.098-47.714C477.362,292.203,467.813,283.3,456.399,283.3z"/>
<path style="fill:#625143;" d="M456.4,283.3H55.597c-7.484,0-14.146,3.842-17.895,9.634c5.143,13.245,16.293,24.558,31.909,30.367
	c57.404,21.354,120.358,33.142,186.388,33.142s128.984-11.788,186.388-33.142c15.615-5.808,26.765-17.122,31.909-30.367
	C470.546,287.141,463.884,283.3,456.4,283.3z"/>
<path style="fill:#DFCE4E;" d="M279.056,426.523c-14.859,12.325-31.256,12.325-46.115,0l-74.81-62.049L60.264,283.3h195.734h195.734
	l-97.867,81.174L279.056,426.523z"/>
<path style="fill:#EFE388;" d="M255.986,420.314c0.003,0,0.008,0,0.011,0c4.207,0,8.645-1.912,13.194-5.685l23.162-19.211
	c9.446-7.835,6.388-22.896-5.294-26.655c-8.363-2.69-16.188-6.392-23.156-11.016c-1.899-1.236-4.792-1.947-7.951-1.951
	c-3.063,0.005-5.955,0.715-7.854,1.949c-15.751,10.454-35.882,16.21-56.697,16.21c-7.206,0-14.444-0.68-21.515-2.019
	c-1.227-0.228-2.445-0.481-3.657-0.746l59.224,49.122C237.837,420.311,251.878,420.311,255.986,420.314z"/>
<path style="fill:#A0BC72;" d="M490.136,224.626c-0.093-0.003-0.182-0.006-0.276-0.009c-0.66-0.021-1.322-0.033-1.983-0.037
	c-11.737-0.059-23.466,2.822-34.27,7.882c-125.241,58.774-269.975,58.774-395.216,0c-10.801-5.061-22.532-7.941-34.27-7.882
	c-0.662,0.004-1.323,0.016-1.983,0.036c-0.092,0.003-0.183,0.006-0.275,0.009C4.444,225.126-5.95,241.239,3.678,257.438
	c0.05,0.083,0.101,0.168,0.152,0.251c5.13,8.423,12.469,16.037,20.947,22.037c16.994,12.119,38.424,17.628,57.04,14.407
	c8.643-1.446,17.799-0.396,26.369,3.003c8.562,3.407,15.617,8.804,20.167,15.575c9.729,14.665,27.652,25.224,47.228,28.846
	c19.562,3.723,40.374,0.454,55.485-9.601c7.01-4.616,15.725-7.053,24.936-7.067c9.211,0.014,17.924,2.451,24.936,7.067
	c15.109,10.056,35.922,13.324,55.485,9.601c19.577-3.622,37.501-14.181,47.228-28.846c4.549-6.772,11.605-12.169,20.167-15.575
	c8.569-3.399,17.726-4.449,26.369-3.003c18.616,3.22,40.044-2.288,57.04-14.408c8.476-6,15.818-13.614,20.947-22.037
	c0.052-0.083,0.102-0.167,0.152-0.251C517.948,241.24,507.555,225.127,490.136,224.626z"/>
<path style="fill:#7C9554;" d="M453.607,232.462c-125.241,58.774-269.974,58.774-395.216,0c-3.632-1.702-7.37-3.156-11.177-4.336
	c-5.728-1.774-11.095,3.785-8.882,9.358c0.015,0.04,0.032,0.08,0.048,0.121c6.68,16.733,20.663,30.179,38.364,36.891
	c56.875,21.565,117.186,32.498,179.255,32.498s122.379-10.933,179.256-32.497c17.702-6.711,31.684-20.157,38.364-36.891
	c0.016-0.04,0.032-0.08,0.048-0.121c2.212-5.573-3.154-11.132-8.882-9.358C460.977,229.306,457.239,230.76,453.607,232.462z"/>
<path style="fill:#C98A2E;" d="M255.998,291.541c61.563,0,120.258-11.202,173.778-31.494c27.517-10.433,40.193-39.541,28.203-64.445
	C423.847,124.708,346.256,75.203,255.998,75.203S88.15,124.708,54.018,195.602c-11.99,24.904,0.686,54.012,28.203,64.445
	C135.74,280.339,194.436,291.541,255.998,291.541z"/>
<path style="opacity:0.5;fill:#D9B43A;enable-background:new    ;" d="M358.132,218.84c27.517-10.433,40.193-39.541,28.203-64.445
	c-12.027-24.981-29.456-47.3-50.928-65.739c-24.639-8.686-51.413-13.453-79.408-13.453c-90.257,0-167.848,49.505-201.98,120.399
	c-5.904,12.262-5.816,25.54-0.932,37.11c41.553,11.457,85.621,17.621,131.269,17.621
	C245.916,250.334,304.612,239.132,358.132,218.84z"/>
<g>
	<circle style="fill:#EBD37A;" cx="210.619" cy="172.349" r="7.726"/>
	<circle style="fill:#EBD37A;" cx="251.826" cy="120.84" r="7.726"/>
	<circle style="fill:#EBD37A;" cx="240.494" cy="94.055" r="7.726"/>
	<circle style="fill:#EBD37A;" cx="272.43" cy="172.349" r="7.726"/>
	<circle style="fill:#EBD37A;" cx="241.524" cy="213.556" r="7.726"/>
	<circle style="fill:#EBD37A;" cx="334.241" cy="203.254" r="7.726"/>
	<circle style="fill:#EBD37A;" cx="300.245" cy="110.538" r="7.726"/>
	<circle style="fill:#EBD37A;" cx="313.637" cy="141.444" r="7.726"/>
	<circle style="fill:#EBD37A;" cx="355.875" cy="120.84" r="7.726"/>
	<circle style="fill:#EBD37A;" cx="355.875" cy="162.047" r="7.726"/>
	<circle style="fill:#EBD37A;" cx="417.685" cy="162.047" r="7.726"/>
	<circle style="fill:#EBD37A;" cx="98.329" cy="182.651" r="7.726"/>
	<circle style="fill:#EBD37A;" cx="118.933" cy="141.444" r="7.726"/>
	<circle style="fill:#EBD37A;" cx="201.347" cy="100.236" r="7.726"/>
	<circle style="fill:#EBD37A;" cx="180.744" cy="192.953" r="7.726"/>
	<circle style="fill:#EBD37A;" cx="376.478" cy="192.953" r="7.726"/>
	<circle style="fill:#EBD37A;" cx="220.921" cy="141.444" r="7.726"/>
	<circle style="fill:#EBD37A;" cx="169.412" cy="119.81" r="7.726"/>
	<circle style="fill:#EBD37A;" cx="148.808" cy="162.047" r="7.726"/>
</g>
<g>
</g>
<g>
</g>
<g>
</g>
<g>
</g>
<g>
</g>
<g>
</g>
<g>
</g>
<g>
</g>
<g>
</g>
<g>
</g>
<g>
</g>
<g>
</g>
<g>
</g>
<g>
</g>
<g>
</g>
</svg>
