<?xml version="1.0" encoding="iso-8859-1"?>
<!-- Generator: Adobe Illustrator 19.0.0, SVG Export Plug-In . SVG Version: 6.00 Build 0)  -->
<svg version="1.1" id="Capa_1" xmlns="http://www.w3.org/2000/svg" xmlns:xlink="http://www.w3.org/1999/xlink" x="0px" y="0px"
	 viewBox="0 0 512 512" style="enable-background:new 0 0 512 512;" xml:space="preserve">
<circle style="fill:#41D0E0;" cx="267.579" cy="257.833" r="164.942"/>
<circle style="fill:#EAEAF1;" cx="267.579" cy="257.833" r="126.887"/>
<path style="fill:#D5D6E3;" d="M171.601,257.829c0-64.844,48.644-118.319,111.43-125.944c-5.065-0.615-10.221-0.938-15.453-0.938
	c-70.075,0-126.882,56.807-126.882,126.882s56.807,126.882,126.882,126.882c5.231,0,10.387-0.323,15.453-0.939
	C220.246,376.147,171.601,322.672,171.601,257.829z"/>
<g>
	<path style="fill:#3A444A;" d="M203.619,268.254c-4.268,0-7.726-3.459-7.726-7.726v-11.575c0-4.267,3.458-7.726,7.726-7.726
		c4.268,0,7.726,3.459,7.726,7.726v11.575C211.346,264.794,207.888,268.254,203.619,268.254z"/>
	<path style="fill:#3A444A;" d="M331.537,268.254c-4.268,0-7.726-3.459-7.726-7.726v-11.575c0-4.267,3.458-7.726,7.726-7.726
		s7.726,3.459,7.726,7.726v11.575C339.263,264.794,335.805,268.254,331.537,268.254z"/>
	<path style="fill:#3A444A;" d="M267.578,274.432c-8.383,0-16.256-3.509-21.604-9.626c-2.808-3.213-2.48-8.093,0.733-10.902
		c3.212-2.808,8.093-2.481,10.902,0.732c2.412,2.76,6.045,4.342,9.968,4.342c3.923,0,7.556-1.583,9.969-4.342
		c2.808-3.213,7.688-3.542,10.902-0.731c3.212,2.808,3.541,7.689,0.731,10.902C283.834,270.924,275.961,274.432,267.578,274.432z"/>
</g>
<g>
	<path style="fill:#ABACBC;" d="M490.095,88.132c4.722-4.199,12.181-0.874,12.181,5.446v215.124h-29.17
		C434.265,169.858,469.643,106.32,490.095,88.132z"/>
	<path style="fill:#ABACBC;" d="M40.57,308.702v-86.608c0-14.454-5.164-28.434-14.563-39.416l-12.75-14.898
		c-15.599-18.229-17.772-44.66-4.711-64.787c6.345-9.776,12.965-13.073,12.965-13.073l8.555,36.535
		c0.697,2.978,4.732,3.467,6.119,0.74l18.969-37.276l18.969,37.276c1.388,2.727,5.422,2.239,6.119-0.74l8.555-36.535
		c0,0,6.62,3.297,12.965,13.073c13.062,20.126,10.889,46.557-4.711,64.787l-12.75,14.898c-9.398,10.983-14.563,24.961-14.563,39.416
		v86.608H40.57z"/>
</g>
<g>
	<path style="fill:#41D0E0;" d="M487.692,289.255c13.425,0,24.308,10.883,24.308,24.308v97.27c0,8.232-6.673,14.907-14.907,14.907
		H478.29c-8.232,0-14.907-6.673-14.907-14.907v-97.27C463.384,300.138,474.268,289.255,487.692,289.255z"/>
	<path style="fill:#41D0E0;" d="M55.155,289.255c13.425,0,24.308,10.883,24.308,24.308v97.27c0,8.232-6.674,14.907-14.907,14.907
		H45.754c-8.232,0-14.907-6.673-14.907-14.907v-97.27C30.847,300.138,41.73,289.255,55.155,289.255z"/>
</g>
<g>
</g>
<g>
</g>
<g>
</g>
<g>
</g>
<g>
</g>
<g>
</g>
<g>
</g>
<g>
</g>
<g>
</g>
<g>
</g>
<g>
</g>
<g>
</g>
<g>
</g>
<g>
</g>
<g>
</g>
</svg>
