<?xml version="1.0" encoding="iso-8859-1"?>
<!-- Generator: Adobe Illustrator 19.0.0, SVG Export Plug-In . SVG Version: 6.00 Build 0)  -->
<svg version="1.1" id="Capa_1" xmlns="http://www.w3.org/2000/svg" xmlns:xlink="http://www.w3.org/1999/xlink" x="0px" y="0px"
	 viewBox="0 0 512 512" style="enable-background:new 0 0 512 512;" xml:space="preserve">
<path style="fill:#FF7816;" d="M466,0H181l69.375,113.124L225.099,198.6L301,405c0,8.399,6.599,15,15,15h150c8.401,0,15-6.601,15-15
	V15C481,6.599,474.401,0,466,0z"/>
<g>
	<path style="fill:#3E322E;" d="M406,180h-90c-8.291,0-15-6.709-15-15s6.709-15,15-15h90c8.291,0,15,6.709,15,15
		S414.291,180,406,180z"/>
	<path style="fill:#3E322E;" d="M406,240h-90c-8.291,0-15-6.709-15-15s6.709-15,15-15h90c8.291,0,15,6.709,15,15
		S414.291,240,406,240z"/>
	<path style="fill:#3E322E;" d="M406,300h-90c-8.291,0-15-6.709-15-15s6.709-15,15-15h90c8.291,0,15,6.709,15,15
		S414.291,300,406,300z"/>
	<path style="fill:#3E322E;" d="M406,360h-90c-8.291,0-15-6.709-15-15s6.709-15,15-15h90c8.291,0,15,6.709,15,15
		S414.291,360,406,360z"/>
</g>
<path style="fill:#68544F;" d="M331,90L225.099,198.6L196,120c-8.401,0-15-6.599-15-15V0L331,90z"/>
<path style="fill:#FDBF00;" d="M46,90c-8.401,0-15,6.599-15,15v392c0,8.399,6.599,15,15,15h270c8.401,0,15-6.601,15-15V90H46z"/>
<path style="fill:#FF9F00;" d="M331,90v407c0,8.399-6.599,15-15,15H181V90H331z"/>
<g>
	<path style="fill:#68544F;" d="M196,165v30c0,8.399-6.599,15-15,15s-15-6.601-15-15v-30c0-8.401,6.599-15,15-15
		S196,156.599,196,165z"/>
	<path style="fill:#68544F;" d="M271,345c0,8.399-6.599,15-15,15H106c-8.401,0-15-6.601-15-15c0-8.401,6.599-15,15-15h150
		C264.401,330,271,336.599,271,345z"/>
	<path style="fill:#68544F;" d="M271,405c0,8.399-6.599,15-15,15H106c-8.401,0-15-6.601-15-15c0-8.401,6.599-15,15-15h150
		C264.401,390,271,396.599,271,405z"/>
	<path style="fill:#68544F;" d="M241,240c0,4.2-0.601,8.099-1.5,12.299h-117c-0.899-4.2-1.5-8.099-1.5-12.299
		c0-33.001,27.001-60,60-60S241,206.999,241,240z"/>
</g>
<g>
	<path style="fill:#53433F;" d="M181,210v-60c8.401,0,15,6.599,15,15v30C196,203.399,189.401,210,181,210z"/>
	<path style="fill:#53433F;" d="M271,405c0,8.399-6.599,15-15,15h-75v-30h75C264.401,390,271,396.599,271,405z"/>
	<path style="fill:#53433F;" d="M271,345c0,8.399-6.599,15-15,15h-75v-30h75C264.401,330,271,336.599,271,345z"/>
	<path style="fill:#53433F;" d="M241,240c0,4.2-0.601,8.099-1.5,12.299H181V180C213.999,180,241,206.999,241,240z"/>
</g>
<path style="fill:#68544F;" d="M271,255c0,8.399-6.599,15-15,15H106c-8.401,0-15-6.601-15-15c0-8.401,6.599-15,15-15h150
	C264.401,240,271,246.599,271,255z"/>
<path style="fill:#53433F;" d="M256,270h-75v-30h75c8.401,0,15,6.599,15,15C271,263.399,264.401,270,256,270z"/>
<g>
</g>
<g>
</g>
<g>
</g>
<g>
</g>
<g>
</g>
<g>
</g>
<g>
</g>
<g>
</g>
<g>
</g>
<g>
</g>
<g>
</g>
<g>
</g>
<g>
</g>
<g>
</g>
<g>
</g>
</svg>
