<?xml version="1.0"?>
<svg xmlns="http://www.w3.org/2000/svg" height="512px" viewBox="-2 0 511 511.99945" width="512px" class=""><g><path d="m254.332031 157.546875c-29.972656 0-54.355469 24.382813-54.355469 54.355469v11.96875c0 8.285156 6.714844 15 15 15 8.28125 0 15-6.714844 15-15v-11.96875c0-13.433594 10.925782-24.355469 24.355469-24.355469 13.429688 0 24.355469 10.925781 24.355469 24.355469v11.96875c0 8.285156 6.71875 15 15 15 8.285156 0 15-6.714844 15-15v-11.96875c0-29.972656-24.382812-54.355469-54.355469-54.355469zm0 0" fill="#b5c9f5" data-original="#B5C9F5" class="" style="fill:#FFA90B" data-old_color="#B5C9F5"/><path d="m254.332031 157.546875v30c13.429688 0 24.355469 10.925781 24.355469 24.355469v11.96875c0 8.285156 6.71875 15 15 15 8.285156 0 15-6.714844 15-15v-11.96875c0-29.972656-24.382812-54.355469-54.355469-54.355469zm0 0" fill="#799ce3" data-original="#799CE3" class="" style="fill:#F29500" data-old_color="#799CE3"/><g fill="#f07a97"><path d="m183.3125 58.824219 1.0625-1.277344c5.304688-6.363281 4.441406-15.824219-1.921875-21.125-6.367187-5.300781-15.824219-4.441406-21.125 1.925781l-1.0625 1.269532c-14.082031 16.898437-13.535156 41.910156 1.269531 58.175781 4.992188 5.484375 4.992188 13.761719 0 19.246093l-3.582031 3.933594c-5.578125 6.128906-5.128906 15.613282.996094 21.191406 2.875 2.617188 6.488281 3.90625 10.09375 3.90625 4.074219 0 8.136719-1.652343 11.097656-4.902343l3.582031-3.9375c15.46875-16.996094 15.46875-42.632813 0-59.632813-4.78125-5.25-4.957031-13.320312-.410156-18.773437zm0 0" data-original="#000000" class="active-path" style="fill:#EEE4E0" data-old_color="#D6CAC6"/><path d="m264.519531 25.878906 1.0625-1.273437c5.304688-6.363281 4.445313-15.820313-1.917969-21.128907-6.359374-5.300781-15.820312-4.445312-21.125 1.917969l-1.0625 1.277344c-14.082031 16.894531-13.535156 41.90625 1.269532 58.175781 4.992187 5.484375 4.992187 13.757813 0 19.242188l-3.582032 3.9375c-5.578124 6.125-5.128906 15.613281.996094 21.1875 2.875 2.617187 6.488282 3.90625 10.09375 3.90625 4.074219 0 8.136719-1.648438 11.097656-4.902344l3.582032-3.933594c15.46875-17 15.46875-42.636718 0-59.632812-4.78125-5.25-4.957032-13.320313-.414063-18.773438zm0 0" data-original="#000000" class="active-path" style="fill:#EEE4E0" data-old_color="#D6CAC6"/><path d="m346.140625 77.597656c-4.777344-5.25-4.953125-13.320312-.410156-18.773437l1.0625-1.273438c5.304687-6.363281 4.445312-15.824219-1.917969-21.125-6.363281-5.304687-15.824219-4.445312-21.128906 1.917969l-1.0625 1.277344c-14.082032 16.894531-13.535156 41.90625 1.269531 58.171875 4.992187 5.484375 4.992187 13.761719 0 19.246093l-3.582031 3.933594c-5.574219 6.128906-5.128906 15.613282.996094 21.191406 2.875 2.617188 6.492187 3.90625 10.09375 3.90625 4.074218 0 8.136718-1.652343 11.097656-4.902343l3.582031-3.9375c15.46875-16.996094 15.46875-42.632813 0-59.632813zm0 0" data-original="#000000" class="active-path" style="fill:#EEE4E0" data-old_color="#D6CAC6"/></g><path d="m480.058594 493.1875v-60.28125c0-60.296875-23.480469-116.980469-66.113282-159.613281-42.632812-42.636719-99.320312-66.117188-159.613281-66.117188s-116.980469 23.480469-159.613281 66.113281c-42.636719 42.636719-66.113281 99.320313-66.113281 159.613282v60.285156zm0 0" fill="#f2f7ff" data-original="#F2F7FF" class="" style="fill:#FFCD71" data-old_color="#F2F7FF"/><path d="m493.164062 482h-477.664062c-8.285156 0-15 6.714844-15 15s6.714844 15 15 15h477.664062c8.28125 0 15-6.714844 15-15s-6.714843-15-15-15zm0 0" fill="#b5c9f5" data-original="#B5C9F5" class="" style="fill:#FFA90B" data-old_color="#B5C9F5"/><path d="m413.945312 273.289062c-42.632812-42.632812-99.320312-66.113281-159.613281-66.113281v286.011719h225.726563v-60.28125c0-60.296875-23.480469-116.980469-66.113282-159.617188zm0 0" fill="#b5c9f5" data-original="#B5C9F5" class="" style="fill:#FFA90B" data-old_color="#B5C9F5"/><path d="m493.164062 482h-238.832031v30h238.832031c8.285157 0 15-6.714844 15-15s-6.714843-15-15-15zm0 0" fill="#799ce3" data-original="#799CE3" class="" style="fill:#F29500" data-old_color="#799CE3"/></g> </svg>
