<svg height="511pt" viewBox="0 -12 511.99943 511" width="511pt" xmlns="http://www.w3.org/2000/svg"><path d="m383.078125 40.472656c-3.4375 0-6.234375-2.796875-6.234375-6.234375v-25.980469c0-4.285156-3.46875-7.757812-7.753906-7.757812s-7.757813 3.472656-7.757813 7.757812v25.980469c0 11.992188 9.757813 21.746094 21.746094 21.746094 3.4375 0 6.234375 2.796875 6.234375 6.234375v15.988281c0 4.285157 3.472656 7.757813 7.757812 7.757813 4.285157 0 7.753907-3.472656 7.753907-7.757813v-15.988281c0-11.992188-9.753907-21.746094-21.746094-21.746094zm0 0" fill="#d2d2d7"/><path d="m221.144531 40.472656c-3.4375 0-6.230469-2.796875-6.230469-6.234375v-25.980469c0-4.285156-3.472656-7.757812-7.757812-7.757812s-7.757812 3.472656-7.757812 7.757812v25.980469c0 11.992188 9.757812 21.746094 21.746093 21.746094 3.441407 0 6.234375 2.796875 6.234375 6.234375v15.988281c0 4.285157 3.472656 7.757813 7.757813 7.757813 4.285156 0 7.757812-3.472656 7.757812-7.757813v-15.988281c0-11.992188-9.757812-21.746094-21.75-21.746094zm0 0" fill="#ebebf0"/><path d="m336.414062 86.65625c-5.597656 0-10.15625-4.554688-10.15625-10.15625v-33.269531c0-4.28125-3.472656-7.753907-7.753906-7.753907-4.285156 0-7.757812 3.472657-7.757812 7.753907v33.269531c0 14.15625 11.515625 25.667969 25.667968 25.667969 5.601563 0 10.15625 4.558593 10.15625 10.160156v20.46875c0 4.285156 3.472657 7.757813 7.757813 7.757813s7.753906-3.472657 7.753906-7.757813v-20.46875c.003907-14.15625-11.511719-25.671875-25.667969-25.671875zm0 0" fill="#ebebf0"/><path d="m495.085938 220.253906c0 24.683594-5.085938 48.179688-14.269532 69.496094-8.875 20.589844-21.574218 39.140625-37.199218 54.757812-31.800782 31.800782-75.734376 51.472657-124.253907 51.472657h-34.5c-97.046875 0-175.726562-78.671875-175.726562-175.726563zm0 0" fill="#f29500"/><path d="m495.085938 220.253906c0 24.683594-5.085938 48.179688-14.269532 69.496094-29.992187 23.828125-67.945312 38.066406-109.238281 38.066406h-34.492187c-72.886719 0-135.402344-44.367187-162.03125-107.5625zm0 0" fill="#ffa90b"/><path d="m511.964844 198.390625v20.15625c0 9.421875-7.632813 17.0625-17.054688 17.0625h-385.589844c-9.417968 0-17.0625-7.640625-17.0625-17.0625v-20.15625c0-9.429687 7.644532-17.0625 17.0625-17.0625h385.589844c9.421875 0 17.054688 7.632813 17.054688 17.0625zm0 0" fill="#ffb52d"/><path d="m511.964844 198.390625v6.734375h-337.046875c-9.421875 0-17.050781-7.632812-17.050781-17.054688v-6.742187h337.042968c9.421875 0 17.054688 7.632813 17.054688 17.0625zm0 0" fill="#ffcd71"/><path d="m501.382812 385.464844-177.691406 90.09375c-23.875 15.195312-54.246094 14.929687-77.742187-.203125-11.027344-7.109375-14.492188-7.796875-72.484375-36.472657-25.769532-12.605468-49.246094-16.621093-87.515625-21.339843v-111.304688h126.902343c7.882813 0 15.433594 3.136719 21.007813 8.710938 1.742187 1.746093-11.578125-11.574219 57.082031 57.070312 5.214844 5.214844 7.796875 12.175781 7.605469 19.066407l1.222656-.839844 186.253907-46.890625c24.679687-3.117188 35.734374 29.175781 15.359374 42.109375zm0 0" fill="#f2bb88"/><path d="m291.652344 407.695312c-9.796875 10.128907-25.910156 10.285157-35.902344.3125l-47.460938-47.46875c-2.53125-2.535156-5.96875-3.957031-9.550781-3.957031h-112.789062v-50.339843h126.90625c7.882812 0 15.433593 3.128906 21.003906 8.699218 1.742187 1.746094-11.578125-11.570312 57.082031 57.070313 9.683594 9.6875 10.375 25.679687.710938 35.683593zm0 0" fill="#f2d1a5"/><path d="m92.300781 303.152344v137.605468c0 1.957032-.1875 3.878907-.527343 5.742188 0 0 0 0-.011719 0-2.710938 14.558594-15.554688 25.675781-30.878907 25.675781h-29.464843c-17.28125 0-31.417969-14.136719-31.417969-31.417969v-137.605468c0-15.398438 11.222656-28.296875 25.894531-30.921875 1.800781-.332031 3.640625-.496094 5.523438-.496094h29.464843c17.28125 0 31.417969 14.136719 31.417969 31.417969zm0 0" fill="#f44545"/><path d="m92.300781 303.152344v137.605468c0 1.957032-.1875 3.878907-.527343 5.742188 0 0 0 0-.011719 0-1.800781.328125-3.640625.496094-5.53125.496094h-29.453125c-17.28125 0-31.417969-14.140625-31.417969-31.417969v-137.609375c0-1.953125.183594-3.875.535156-5.738281 1.800781-.332031 3.640625-.496094 5.523438-.496094h29.464843c17.28125 0 31.417969 14.136719 31.417969 31.417969zm0 0" fill="#fb5858"/><path d="m64.730469 422.683594c0 10.261718-8.316407 18.582031-18.582031 18.582031-10.261719 0-18.582032-8.320313-18.582032-18.582031 0-10.261719 8.320313-18.582032 18.582032-18.582032 10.265624 0 18.582031 8.320313 18.582031 18.582032zm0 0" fill="#c42d2d"/></svg>