<?xml version="1.0" encoding="iso-8859-1"?>
<!-- Generator: Adobe Illustrator 19.0.0, SVG Export Plug-In . SVG Version: 6.00 Build 0)  -->
<svg version="1.1" id="Capa_1" xmlns="http://www.w3.org/2000/svg" xmlns:xlink="http://www.w3.org/1999/xlink" x="0px" y="0px"
	 viewBox="0 0 468.4 468.4" style="enable-background:new 0 0 468.4 468.4;" xml:space="preserve">
<rect x="229.221" y="114.2" style="fill:#64798A;" width="17.7" height="352.9"/>
<path style="fill:#CE412D;" d="M19.621,135.9h-0.2v27.2c0,24.2,19.5,43.9,43.6,43.9s43.6-19.7,43.6-43.9V136l131.4-135.9
	L19.621,135.9z"/>
<path style="fill:#F4F4F4;" d="M106.621,136v27.2c0,24.2,19.5,43.8,43.6,43.8s43.6-19.6,43.6-43.8V136l44.2-135.9L106.621,136z"/>
<g>
	<path style="fill:#CE412D;" d="M455.321,135.9L238.021,0.1l130.2,135.9v27.1c0,24.2,19.5,43.9,43.6,43.9s43.6-19.7,43.6-43.9v-27.2
		L455.321,135.9L455.321,135.9z"/>
	<path style="fill:#CE412D;" d="M281.021,135.9l-43-135.9l-44.2,135.9l0,0v27.2c0,24.2,19.5,43.9,43.6,43.9s43.6-19.6,43.6-43.9
		V135.9L281.021,135.9z"/>
</g>
<path style="fill:#F2F2F2;" d="M238.021,0.1l43,135.9v27.2c0,24.2,19.5,43.8,43.6,43.8s43.6-19.6,43.6-43.8V136v-1.5L238.021,0.1z"
	/>
<path style="fill:#2F4859;" d="M367.721,273.6h-261.6c-7.3,0-13.2,6-13.2,13.3s5.9,13.3,13.2,13.3h261.6c7.3,0,13.2-6,13.2-13.3
	S375.021,273.6,367.721,273.6z"/>
<g>
	<path style="fill:#DC8744;" d="M412.121,353.8h-94.5v-12.9c0-7.6,6.1-13.7,13.6-13.7h90.6L412.121,353.8z"/>
	<path style="fill:#DC8744;" d="M150.821,353.8h-89.5l-17-26.6h92.9c7.5,0,13.6,6.1,13.6,13.7V353.8z"/>
</g>
<g>
	<path style="fill:#FFD15C;" d="M463.121,242.8c-4.4-2-9.7,0-11.7,4.4l-46.1,102.8h-87.8l-32.7,118.2h17l29.1-100.4h73.4l29.1,100.4
		h17l-30-108.6l47.1-105.2C469.621,250.1,467.621,244.9,463.121,242.8z"/>
	<path style="fill:#FFD15C;" d="M63.021,350.1l-46.1-102.8c-2-4.5-7.2-6.5-11.7-4.4c-4.4,2-6.4,7.3-4.4,11.7l47.1,105.2l-30,108.6
		h17l29.1-100.4h73.4l29.1,100.4h17l-32.7-118.2h-87.8V350.1z"/>
</g>
<g>
</g>
<g>
</g>
<g>
</g>
<g>
</g>
<g>
</g>
<g>
</g>
<g>
</g>
<g>
</g>
<g>
</g>
<g>
</g>
<g>
</g>
<g>
</g>
<g>
</g>
<g>
</g>
<g>
</g>
</svg>
