<svg height="512pt" viewBox="0 0 512 512.00003" width="512pt" xmlns="http://www.w3.org/2000/svg"><path d="m339.445312 460.667969h61.8125v51.332031h-61.8125zm0 0" fill="#d5dfe8"/><path d="m370.351562 460.667969h30.902344v51.332031h-30.902344zm0 0" fill="#cad2db"/><path d="m322.753906 341.214844c-4.144531 0-7.5 3.359375-7.5 7.5v75.207031c0 4.140625 3.355469 7.5 7.5 7.5 4.140625 0 7.5-3.359375 7.5-7.5v-75.207031c0-4.140625-3.359375-7.5-7.5-7.5zm0 0" fill="#71f6fc"/><path d="m485.730469 243.976562v179.945313h-92.714844v-179.945313c0-13.214843 4.960937-25.953124 13.90625-35.683593 8.941406-9.734375 13.90625-22.46875 13.90625-35.6875v-56.710938h37.085937v56.710938c0 13.21875 4.964844 25.953125 13.90625 35.6875 8.945313 9.730469 13.910157 22.46875 13.910157 35.683593zm0 0" fill="#685c79"/><path d="m471.824219 208.292969c-8.945313-9.734375-13.910157-22.46875-13.910157-35.6875v-56.710938h-30.902343v56.710938c0 13.21875 4.960937 25.953125 13.90625 35.6875 8.941406 9.730469 13.90625 22.46875 13.90625 35.683593v179.945313h30.90625v-179.945313c0-13.214843-4.964844-25.953124-13.90625-35.683593zm0 0" fill="#594f69"/><path d="m323.171875 363.140625h-.417969c-19.800781 0-35.847656-16.050781-35.847656-35.847656v-69.351563c0-2.210937 1.789062-4 4-4h64.113281c2.207031 0 4 1.789063 4 4v69.351563c0 19.796875-16.050781 35.847656-35.847656 35.847656zm0 0" fill="#b5fcff"/><path d="m328.113281 253.941406v73.351563c0 14.347656-8.429687 26.71875-20.605469 32.445312 4.628907 2.179688 9.792969 3.402344 15.246094 3.402344h.417969c19.796875 0 35.847656-16.050781 35.847656-35.847656v-69.351563c0-2.210937-1.792969-4-4-4zm0 0" fill="#71f6fc"/><path d="m459.976562 131.347656h-41.207031c-2.277343 0-4.121093-1.84375-4.121093-4.121094v-22.664062c0-2.277344 1.84375-4.121094 4.121093-4.121094h41.207031c2.277344 0 4.121094 1.84375 4.121094 4.121094v22.664062c0 2.277344-1.84375 4.121094-4.121094 4.121094zm0 0" fill="#ffbd54"/><path d="m417.738281 471.308594h-78.292969v-47.386719h92.714844v32.964844c0 7.964843-6.457031 14.421875-14.421875 14.421875zm0 0" fill="#ebad88"/><path d="m401.257812 424.949219v31.9375c0 7.964843-6.457031 14.421875-14.425781 14.421875h30.90625c7.964844 0 14.421875-6.457032 14.421875-14.421875v-31.9375zm0 0" fill="#e8916f"/><path d="m121.5625 317.8125h61.808594v72.113281h-61.808594zm0 0" fill="#d98868"/><path d="m56.921875 168.433594c0 22.191406-13.605469 40.179687-30.390625 40.179687-16.78125 0-26.53125-20.660156-26.53125-42.847656 0-22.191406 9.75-37.507813 26.53125-37.507813 16.785156 0 30.390625 17.988282 30.390625 40.175782zm0 0" fill="#e8916f"/><path d="m248.011719 168.433594c0 22.191406 13.605469 40.179687 30.390625 40.179687 16.78125 0 26.53125-20.660156 26.53125-42.847656 0-22.191406-9.75-37.507813-26.53125-37.507813-16.785156 0-30.390625 17.988282-30.390625 40.175782zm0 0" fill="#d98868"/><path d="m41.207031 214.863281v-82.632812c0-57.953125 46.980469-104.929688 104.929688-104.929688h12.660156c57.949219 0 104.929687 46.976563 104.929687 104.929688v82.632812c0 61.410157-49.78125 111.1875-111.1875 111.1875h-.144531c-61.40625 0-111.1875-49.777343-111.1875-111.1875zm0 0" fill="#ebad88"/><path d="m158.796875 27.300781h-12.660156c-3.074219 0-6.113281.140625-9.121094.398438 53.675781 4.625 95.804687 49.652343 95.804687 104.53125v82.632812c0 56.1875-41.679687 102.632813-95.804687 110.125 5.027344.695313 10.160156 1.0625 15.378906 1.0625h.144531c61.40625 0 111.1875-49.777343 111.1875-111.1875v-82.632812c0-57.953125-46.980468-104.929688-104.929687-104.929688zm0 0" fill="#e8916f"/><g fill="#9c5d35"><path d="m205.480469 233.289062c-3.84375-1.558593-8.214844.289063-9.769531 4.128907-.09375.222656-9.484376 22.421875-42.132813 22.421875-32.546875 0-44.070313-21.921875-44.585937-22.933594-1.828126-3.691406-6.296876-5.21875-10.007813-3.40625-3.722656 1.816406-5.265625 6.308594-3.449219 10.027344.625 1.28125 15.773438 31.3125 58.042969 31.3125 42.632813 0 55.5-30.480469 56.027344-31.777344 1.558593-3.839844-.289063-8.210938-4.125-9.773438zm0 0"/><path d="m207.410156 166.023438c-17.671875-1.753907-31.28125 4.121093-31.851562 4.371093-3.777344 1.664063-5.488282 6.0625-3.84375 9.847657 1.226562 2.824218 3.988281 4.511718 6.890625 4.511718.992187 0 1.996093-.199218 2.960937-.613281.109375-.046875 10.761719-4.535156 24.359375-3.1875 4.125.410156 7.796875-2.601563 8.207031-6.722656.40625-4.125-2.601562-7.796875-6.722656-8.207031zm0 0"/><path d="m99.007812 180.949219c13.5-1.335938 24.105469 3.085937 24.351563 3.191406.976563.421875 1.992187.625 2.992187.625 2.882813 0 5.632813-1.675781 6.867188-4.484375 1.667969-3.792969-.054688-8.21875-3.847656-9.882812-.570313-.253907-14.175782-6.128907-31.847656-4.371094-4.125.40625-7.132813 4.082031-6.722657 8.203125.410157 4.121093 4.085938 7.136719 8.207031 6.71875zm0 0"/></g><path d="m297.722656 490.949219v21.050781h-290.511718v-21.050781c0-61.199219 42.96875-110.8125 95.972656-110.8125h98.566406c53.003906 0 95.972656 49.613281 95.972656 110.8125zm0 0" fill="#d5dfe8"/><path d="m201.75 380.136719h-30.90625c53.007812 0 95.972656 49.613281 95.972656 110.816406v21.046875h30.90625v-21.050781c0-61.199219-42.96875-110.8125-95.972656-110.8125zm0 0" fill="#cad2db"/><path d="m244.636719 512h-184.339844l16.457031-133.839844c.101563-.828125.695313-1.515625 1.503906-1.734375l39.4375-10.769531c1.105469-.300781 2.246094.359375 2.535157 1.46875l30.757812 118.304688c.398438 1.519531 2.558594 1.519531 2.957031 0l30.765626-118.304688c.289062-1.109375 1.429687-1.769531 2.539062-1.46875l39.4375 10.769531c.804688.21875 1.398438.90625 1.5 1.734375zm0 0" fill="#ff2c5c"/><path d="m228.1875 378.160156c-.101562-.828125-.695312-1.515625-1.5-1.734375l-39.4375-10.769531c-1.109375-.300781-2.25.359375-2.539062 1.46875l-1.523438 5.859375 12.59375 3.441406c.808594.21875 1.402344.90625 1.503906 1.734375l16.445313 133.839844h30.90625zm0 0" fill="#e62753"/><path d="m145.75 370.09375c0 9.671875-28.144531 17.511719-36.035156 17.511719s-.375-15.210938-.375-17.511719-7.515625-17.515625.375-17.515625 36.035156 7.84375 36.035156 17.515625zm0 0" fill="#685c79"/><path d="m159.183594 370.09375c0 9.671875 28.144531 17.511719 36.035156 17.511719 7.886719 0 .375-15.210938.375-17.511719s7.511719-17.515625-.375-17.515625c-7.890625 0-36.035156 7.84375-36.035156 17.515625zm0 0" fill="#685c79"/><path d="m167.921875 370.09375c0-8.472656-6.921875-15.339844-15.453125-15.339844-8.535156 0-15.453125 6.867188-15.453125 15.339844s6.917969 15.339844 15.453125 15.339844c8.53125 0 15.453125-6.867188 15.453125-15.339844zm0 0" fill="#594f69"/><path d="m275.492188 165.988281c-3.253907 8.707031-14.085938 12.039063-21.359376 6.261719-21.222656-16.796875-25.761718-65.726562-25.761718-65.726562-35.519532-20.9375-41.425782-43.957032-41.425782-43.957032-20.53125 34.960938-110.386718 43.957032-110.386718 43.957032s-4.523438 48.929687-25.746094 65.726562c-7.273438 5.777344-18.105469 2.445312-21.355469-6.261719-10.003906-26.714843-3.945312-59.464843-3.945312-59.464843s3.617187-89.339844 81.910156-102.667969c83.042969-14.121094 97.476563 15.101562 97.476563 15.101562 77.925781 3.851563 74.519531 87.566407 74.519531 87.566407s6.058593 32.746093-3.925781 59.464843zm0 0" fill="#b0693c"/><path d="m279.417969 106.523438s3.40625-83.714844-74.519531-87.566407c0 0-11.453126-23.191406-72.664063-18.273437 17.199219 1.695312 27.636719 6.265625 33.777344 10.410156 6.824219 4.605469 14.402343 8 22.472656 9.640625 62.996094 12.839844 60.027344 85.789063 60.027344 85.789063s5.585937 30.21875-2.828125 56.285156c2.472656 3.683594 5.273437 6.925781 8.453125 9.441406 7.269531 5.777344 18.105469 2.445312 21.355469-6.261719 9.984374-26.71875 3.925781-59.464843 3.925781-59.464843zm0 0" fill="#9c5d35"/><path d="m508 409.496094h-245.425781c-2.207031 0-4 1.792968-4 4v11.636718c0 8.433594 6.835937 15.269532 15.269531 15.269532h222.886719c8.433593 0 15.269531-6.835938 15.269531-15.269532v-11.636718c0-2.207032-1.789062-4-4-4zm0 0" fill="#ffd659"/><path d="m496.730469 440.402344h-30.90625c8.433593 0 15.269531-6.835938 15.269531-15.269532v-15.636718h26.90625c2.210938 0 4 1.789062 4 4v11.636718c0 8.433594-6.835938 15.269532-15.269531 15.269532zm0 0" fill="#ffbd54"/></svg>